<svg width="24" height="24" viewBox="0 0 24 24" fill="none" xmlns="http://www.w3.org/2000/svg">
<g id="Github - Negative" clip-path="url(#clip0_646_3225)">
<path id="Vector" fill-rule="evenodd" clip-rule="evenodd" d="M12.0003 0.5C9.15149 0.501478 6.39613 1.51046 4.22687 3.34652C2.05761 5.18259 0.615903 7.72601 0.159545 10.522C-0.296814 13.318 0.261927 16.1842 1.73587 18.6082C3.20981 21.0321 5.50284 22.8558 8.20493 23.753C8.80105 23.8636 9.0256 23.4941 9.0256 23.18C9.0256 22.8658 9.01367 21.955 9.0097 20.9592C5.6714 21.6804 4.96599 19.5505 4.96599 19.5505C4.42152 18.1674 3.63464 17.8039 3.63464 17.8039C2.54571 17.065 3.71611 17.0788 3.71611 17.0788C4.92227 17.1637 5.55616 18.3097 5.55616 18.3097C6.62521 20.1333 8.36389 19.6058 9.04745 19.2976C9.15475 18.5251 9.46673 17.9995 9.8105 17.7012C7.14383 17.4008 4.34204 16.3774 4.34204 11.8054C4.32551 10.6197 4.76802 9.47305 5.57801 8.60268C5.45481 8.30236 5.04348 7.08923 5.69524 5.44143C5.69524 5.44143 6.7027 5.12136 8.9958 6.66444C10.9627 6.12962 13.0379 6.12962 15.0047 6.66444C17.2958 5.12136 18.3013 5.44143 18.3013 5.44143C18.9551 7.08528 18.5437 8.29841 18.4205 8.60268C19.2331 9.47319 19.6765 10.6218 19.6585 11.8094C19.6585 16.3912 16.8507 17.4008 14.1801 17.6952C14.6093 18.0667 14.9928 18.7918 14.9928 19.9061C14.9928 21.5026 14.9789 22.7868 14.9789 23.18C14.9789 23.4981 15.1955 23.8695 15.8035 23.753C18.5059 22.8557 20.7992 21.0317 22.2731 18.6073C23.747 16.183 24.3055 13.3163 23.8486 10.5201C23.3917 7.7238 21.9493 5.18035 19.7793 3.34461C17.6094 1.50886 14.8533 0.500541 12.0042 0.5H12.0003Z" fill="white"/>
<path id="Vector_2" d="M8.02783 19.9752C8.02783 20.072 7.91656 20.155 7.77349 20.1569C7.63042 20.1589 7.51318 20.0799 7.51318 19.9831C7.51318 19.8863 7.62445 19.8033 7.76752 19.8013C7.91059 19.7993 8.02783 19.8764 8.02783 19.9752Z" fill="white"/>
<path id="Vector_3" d="M8.9419 19.8229C8.95978 19.9197 8.86042 20.0205 8.71735 20.0442C8.57428 20.0679 8.4491 20.0106 8.43121 19.9158C8.41333 19.8209 8.51666 19.7182 8.65576 19.6925C8.79485 19.6668 8.92401 19.7261 8.9419 19.8229Z" fill="white"/>
<path id="Vector_4" d="M7.04617 19.9079C7.01637 20.0008 6.88124 20.0423 6.74612 20.0027C6.611 19.9632 6.52158 19.8526 6.54741 19.7577C6.57325 19.6629 6.71036 19.6194 6.84747 19.6629C6.98457 19.7064 7.07201 19.8111 7.04617 19.9079Z" fill="white"/>
<path id="Vector_5" d="M6.14605 19.5207C6.08048 19.5939 5.94735 19.5741 5.83806 19.4753C5.72877 19.3765 5.70293 19.2422 5.7685 19.171C5.83408 19.0999 5.96721 19.1197 6.08048 19.2165C6.19374 19.3133 6.2156 19.4496 6.14605 19.5207Z" fill="white"/>
<path id="Vector_6" d="M5.50425 18.8568C5.43072 18.9082 5.30553 18.8568 5.23598 18.754C5.21675 18.7356 5.20146 18.7135 5.19101 18.6891C5.18056 18.6646 5.17517 18.6383 5.17517 18.6118C5.17517 18.5852 5.18056 18.5589 5.19101 18.5345C5.20146 18.5101 5.21675 18.488 5.23598 18.4695C5.3095 18.4201 5.4347 18.4695 5.50425 18.5703C5.57379 18.6711 5.57578 18.8054 5.50425 18.8568Z" fill="white"/>
<path id="Vector_7" d="M5.03129 18.1711C4.99014 18.1918 4.94306 18.1975 4.89811 18.1874C4.85316 18.1773 4.81314 18.152 4.78489 18.1158C4.7074 18.0328 4.69149 17.9182 4.7511 17.8669C4.81072 17.8155 4.91803 17.8392 4.99552 17.9222C5.07302 18.0052 5.0909 18.1198 5.03129 18.1711Z" fill="white"/>
<path id="Vector_8" d="M4.54444 17.6321C4.5186 17.6914 4.42322 17.7092 4.34573 17.6677C4.26823 17.6262 4.21061 17.5491 4.23843 17.4879C4.26625 17.4266 4.35964 17.4108 4.43714 17.4523C4.51463 17.4938 4.57424 17.5729 4.54444 17.6321Z" fill="white"/>
</g>
<defs>
<clipPath id="clip0_646_3225">
<rect width="24" height="24" fill="white"/>
</clipPath>
</defs>
</svg>
