<svg width="24" height="24" viewBox="0 0 24 24" fill="none" xmlns="http://www.w3.org/2000/svg">
<g id="Twitter - Negative" clip-path="url(#clip0_646_3227)">
<path id="Vector" d="M7.55016 21.7502C16.6045 21.7502 21.5583 14.2469 21.5583 7.74211C21.5583 7.53117 21.5536 7.31554 21.5442 7.1046C22.5079 6.40771 23.3395 5.5445 24 4.55554C23.1025 4.95484 22.1496 5.21563 21.1739 5.32898C22.2013 4.71315 22.9705 3.74572 23.3391 2.60601C22.3726 3.1788 21.3156 3.58286 20.2134 3.80085C19.4708 3.01181 18.489 2.48936 17.4197 2.3143C16.3504 2.13923 15.2532 2.32129 14.2977 2.83234C13.3423 3.34339 12.5818 4.15495 12.1338 5.14156C11.6859 6.12816 11.5754 7.23486 11.8195 8.29054C9.86249 8.19233 7.94794 7.68395 6.19998 6.79834C4.45203 5.91274 2.90969 4.66968 1.67297 3.14976C1.0444 4.23349 0.852057 5.51589 1.13503 6.73634C1.418 7.95678 2.15506 9.02369 3.19641 9.72023C2.41463 9.69541 1.64998 9.48492 0.965625 9.10617V9.1671C0.964925 10.3044 1.3581 11.4068 2.07831 12.287C2.79852 13.1672 3.80132 13.7708 4.91625 13.9952C4.19206 14.1934 3.43198 14.2222 2.69484 14.0796C3.00945 15.0577 3.62157 15.9131 4.44577 16.5266C5.26997 17.14 6.26512 17.4808 7.29234 17.5015C5.54842 18.8714 3.39417 19.6144 1.17656 19.6109C0.783287 19.6103 0.390399 19.5861 0 19.5387C2.25286 20.984 4.87353 21.7516 7.55016 21.7502Z" fill="white"/>
</g>
<defs>
<clipPath id="clip0_646_3227">
<rect width="24" height="24" fill="white"/>
</clipPath>
</defs>
</svg>
