<?xml version="1.0" encoding="utf-8"?>
<!-- Generator: Adobe Illustrator 15.0.0, SVG Export Plug-In . SVG Version: 6.00 Build 0)  -->
<!DOCTYPE svg PUBLIC "-//W3C//DTD SVG 1.1//EN" "http://www.w3.org/Graphics/SVG/1.1/DTD/svg11.dtd">
<svg version="1.1" id="Layer_1" xmlns="http://www.w3.org/2000/svg" xmlns:xlink="http://www.w3.org/1999/xlink" x="0px" y="0px"
	 width="130px" height="130px" viewBox="0 0 130 130" enable-background="new 0 0 130 130" xml:space="preserve">
<path fill="#FFFFFF" d="M127.48,85.518l-15.382-41.421c-0.26-0.702-0.929-1.167-1.678-1.167H84.902L69.954,2.743
	c-0.218-0.586-0.726-1.016-1.34-1.133C68,1.492,67.37,1.703,66.95,2.167L30.022,42.929H4.151c-0.585,0-1.135,0.288-1.469,0.769
	c-0.335,0.48-0.413,1.095-0.208,1.645l15.39,41.421c0.261,0.701,0.93,1.167,1.678,1.167h25.128l14.947,40.234
	c0.218,0.586,0.724,1.015,1.337,1.135c0.114,0.021,0.229,0.032,0.341,0.032c0.499,0,0.981-0.208,1.324-0.585l37.185-40.816h26
	c0.586,0,1.135-0.286,1.469-0.769C127.606,86.682,127.685,86.066,127.48,85.518z M67.626,6.751l13.969,37.552L65.571,61.892
	l-6.593-17.75c-0.192-0.562-0.652-0.994-1.23-1.146c-0.018-0.005-0.035-0.012-0.053-0.017c-0.068-0.016-0.139-0.022-0.21-0.03
	c-0.052-0.006-0.104-0.015-0.157-0.016c-0.012,0-0.024-0.003-0.036-0.003H34.854L67.626,6.751z M6.726,46.509h49.312l6.819,18.361
	l-17.748,19.48H20.786L6.726,46.509z M61.949,124.165L47.967,86.529L64.26,68.646l6.729,18.118c0.261,0.701,0.93,1.167,1.678,1.167
	h22.295L61.949,124.165z M73.912,84.351l-6.939-18.684l17.454-19.158h24.751l14.051,37.842H73.912z"/>
</svg>
