<svg width="127" height="32" viewBox="0 0 127 32" fill="none" xmlns="http://www.w3.org/2000/svg">
<g id="Cartesi Logo" clip-path="url(#clip0_738_205)">
<path id="Union" fill-rule="evenodd" clip-rule="evenodd" d="M7.99837 9.18897L17.006 0L21.0512 9.87356L16.6469 14.3662L14.822 9.18897H7.99837ZM0 10.9693L3.54667 21.0317H10.1107L15.2656 15.7744L13.5718 10.9693H0ZM17.3036 16.2302L22.4632 10.9693H29.0272L32.5739 21.0317H18.9965L17.3036 16.2302ZM15.5679 32L11.5227 22.1264L15.9233 17.6385L17.7464 22.811H24.5774L15.5679 32ZM78.1606 10.946V8.23277H75.1879V23.7682H78.2257V15.9847C78.2257 12.5608 79.9372 10.9786 82.4896 10.9786H83.7378V8.2337H82.7268C81.1436 8.2337 79.2908 8.55646 78.1606 10.947V10.946ZM93.2467 15.967C93.2467 11.0995 96.7655 7.77793 100.672 7.77793V7.777C105.451 7.777 108.131 11.066 108.131 15.9028C108.131 16.2897 108.099 16.6767 108.066 16.8702H96.3786C96.4437 19.6429 98.4454 21.5777 101.06 21.5777C103.09 21.5777 104.3 20.6773 104.998 19.4169H108.013C107.123 22.1274 104.648 24.2537 101.06 24.2537C96.8957 24.2537 93.2467 21.2233 93.2467 15.967ZM100.704 10.454C98.1533 10.454 96.6037 12.4212 96.4744 14.4201H104.966C104.902 12.1952 103.449 10.454 100.704 10.454ZM125.535 8.26626H122.643V23.7672H125.535V8.26626ZM121.959 4.62099C121.959 3.42482 122.906 2.48072 124.073 2.48072C125.273 2.48072 126.22 3.45644 126.22 4.62099C126.22 5.78554 125.24 6.73058 124.073 6.73058C122.906 6.73058 121.959 5.81717 121.959 4.62099ZM88.0742 3.32343H85.0372V20.8028C85.0372 22.4399 86.3646 23.7672 88.0016 23.7672H92.511V21.0224H88.0732V10.9776H92.511V8.23277H88.0732V3.32436L88.0742 3.32343ZM46.661 15.9995C46.661 19.5192 48.8925 21.4493 51.3992 21.4493L51.3983 21.4484C53.6716 21.4484 54.7348 20.254 55.2175 19.4169H58.3921C57.6517 21.6418 55.4277 24.2537 51.3992 24.2537C46.8871 24.2537 43.5674 20.8354 43.5674 15.9995C43.5674 11.1637 46.9522 7.77793 51.3676 7.77793C55.4928 7.77793 57.6192 10.3572 58.2647 12.7115H55.0789C54.4734 11.5757 53.3451 10.5833 51.3676 10.5833C48.9176 10.5833 46.661 12.4798 46.661 15.9995ZM116.915 14.8396L114.406 14.2918C113.215 14.0341 112.635 13.357 112.635 12.4212C112.635 11.3571 113.571 10.3582 115.117 10.3582C117.272 10.3582 118.016 11.706 118.172 12.6119H120.989C120.603 9.68474 118.581 7.77886 115.117 7.77886C112.093 7.77886 109.707 10.0363 109.707 12.6798C109.707 14.8731 111.156 16.5167 113.569 17.0329L116.208 17.6133C117.496 17.9036 118.204 18.6449 118.204 19.6122C118.204 20.7089 117.27 21.6753 115.564 21.6753C113.678 21.6753 112.51 20.7154 112.1 19.4178H109.092C109.666 22.7106 111.977 24.2546 115.532 24.2546C119.362 24.2546 121.196 21.6428 121.196 19.4504C121.196 17.258 119.717 15.4517 116.915 14.8396ZM59.9817 12.7115C60.2515 10.1721 62.641 7.77886 66.317 7.77886C70.9575 7.77886 72.762 10.4233 72.762 13.4537V23.771H69.8302V21.6753C69.1521 22.772 67.6062 24.2546 64.8353 24.2546C61.6774 24.2546 59.6469 22.0623 59.6469 19.6113C59.6469 16.8385 61.6774 15.2908 64.3516 14.9047L68.5391 14.2918C69.4739 14.1625 69.7316 13.6788 69.7316 13.1309C69.7316 11.6157 68.7335 10.3582 66.3812 10.3582C64.572 10.3582 63.44 11.3144 63.0233 12.7115H59.9817ZM65.2538 21.7079C67.7346 21.7079 69.7325 20.5145 69.7325 17.1297H69.7316V16.42L64.9962 17.1297C63.7079 17.3231 62.7396 18.0645 62.7396 19.4504C62.7396 20.6112 63.7079 21.7079 65.2538 21.7079Z" fill="#1C1B1F"/>
</g>
<defs>
<clipPath id="clip0_738_205">
<rect width="126.22" height="32" fill="white"/>
</clipPath>
</defs>
</svg>
