<svg id="logo" xmlns="http://www.w3.org/2000/svg" width="152" height="51.706" viewBox="0 0 152 51.706" fill="#fff">
<path id="Path_61"  data-name="Path 61" d="M196.793,236.6H204.8v.956h-3.407v8.463h-1.2v-8.463H196.78Z" transform="translate(-161.744 -194.496)"></path>
<path id="Path_62" data-name="Path 62" d="M248.7,236.6h1.151v3.659h.131a2.3,2.3,0,0,1,2.192-1.046,2.249,2.249,0,0,1,2.511,2.392v4.423h-1.151v-4.3a1.468,1.468,0,0,0-1.636-1.614,1.981,1.981,0,0,0-2.053,2.192v3.721H248.7Z" transform="translate(-204.353 -194.496)"></path><path id="Path_63" data-name="Path 63" d="M293.287,251.08a2.88,2.88,0,0,1,3.076,3.2v.538h-5.2c.027,1.465.823,2.374,2.118,2.374a1.751,1.751,0,0,0,1.9-1.374h1.033v.2a2.7,2.7,0,0,1-2.923,2.046c-1.987,0-3.244-1.223-3.244-3.492S291.332,251.08,293.287,251.08Zm1.973,2.891a1.846,1.846,0,0,0-1.982-2.021,1.977,1.977,0,0,0-2.093,2.021Z" transform="translate(-238.287 -206.379)"></path><path id="Path_64" data-name="Path 64" d="M353.61,236.6h4.159c1.648,0,2.918.8,2.918,2.362a2,2,0,0,1-1.6,2.125v.131a2.112,2.112,0,0,1,1.772,2.244c0,1.727-1.354,2.557-3.049,2.557h-4.2Zm1.191.956v3.2h2.825c1.065,0,1.928-.438,1.928-1.6s-.863-1.6-1.928-1.6Zm0,4.152v3.355h2.869c1.151,0,2.021-.477,2.021-1.68s-.87-1.675-2.021-1.675Z" transform="translate(-290.448 -194.496)"></path><path id="Path_65" data-name="Path 65" d="M403.48,246.019h-1.15V236.6h1.15Z" transform="translate(-330.431 -194.496)"></path><path id="Path_66" data-name="Path 66" d="M420.459,251.08a3.494,3.494,0,1,1-3.329,3.494A3.153,3.153,0,0,1,420.459,251.08Zm0,6.083c1.3,0,2.165-.9,2.165-2.591s-.863-2.6-2.165-2.6-2.165.9-2.165,2.6S419.164,257.163,420.459,257.163Z" transform="translate(-342.576 -206.379)"></path><path id="Path_67" data-name="Path 67" d="M463.7,251.08c1.973,0,2.869,1.211,2.956,2.256v.2h-1.076a1.687,1.687,0,0,0-1.858-1.557c-1.327,0-2.177.909-2.177,2.6s.846,2.591,2.179,2.591a1.693,1.693,0,0,0,1.878-1.6h1.076v.2a2.668,2.668,0,0,1-2.975,2.3,3.494,3.494,0,0,1,0-6.978Z" transform="translate(-378.078 -206.379)"></path><path id="Path_68" data-name="Path 68" d="M505.7,242.533l3.748,3.286v.2H508.1l-3.343-2.959h-.129v2.963H503.48V236.6h1.151v5.452h.129l3.277-2.69h1.322v.2Z" transform="translate(-413.44 -194.496)"></path><path id="Path_69" data-name="Path 69" d="M542.826,251.08c1.973,0,2.87,1.211,2.956,2.256v.2h-1.076a1.687,1.687,0,0,0-1.858-1.557c-1.327,0-2.177.909-2.177,2.6s.839,2.591,2.174,2.591a1.692,1.692,0,0,0,1.878-1.6H545.8v.2a2.668,2.668,0,0,1-2.972,2.3,3.495,3.495,0,0,1,0-6.98Z" transform="translate(-443.009 -206.379)"></path><path id="Path_70" data-name="Path 70" d="M582.545,236.6H583.7v3.659h.131a2.3,2.3,0,0,1,2.19-1.046,2.248,2.248,0,0,1,2.511,2.392v4.423h-1.151v-4.3a1.467,1.467,0,0,0-1.634-1.614,1.981,1.981,0,0,0-2.053,2.192v3.721H582.54Z" transform="translate(-478.322 -194.496)"></path><path id="Path_71" data-name="Path 71" d="M624.308,253.291v-.2c.138-1.243,1.2-2.014,2.923-2.014s2.733.771,2.733,2.434V257.9h-1.085v-.956h-.131a2.365,2.365,0,0,1-2.331,1.1c-1.417,0-2.407-.717-2.407-1.973,0-1.295,1-1.838,2.348-2.009l2.493-.308v-.3c0-1.076-.563-1.51-1.648-1.51s-1.727.438-1.818,1.354Zm2.331,3.892a2.042,2.042,0,0,0,2.217-2.192v-.4l-2.283.3c-.877.117-1.435.43-1.435,1.157s.583,1.139,1.492,1.139Z" transform="translate(-512.354 -206.379)"></path><path id="Path_72" data-name="Path 72" d="M667,238.57h1.334v1.255H667Zm1.239,2.409v6.664h-1.15v-6.664Z" transform="translate(-547.635 -196.113)"></path><path id="Path_73" data-name="Path 73" d="M684.487,251.311h1.119v.942h.131a2.319,2.319,0,0,1,2.224-1.092,2.249,2.249,0,0,1,2.511,2.392v4.423H689.32v-4.3a1.468,1.468,0,0,0-1.636-1.614,1.981,1.981,0,0,0-2.053,2.192v3.721H684.48Z" transform="translate(-561.98 -206.445)"></path><path id="Path_74" data-name="Path 74" d="M750.045,235.58c2.792,0,4.7,1.767,4.7,4.892s-1.9,4.892-4.7,4.892-4.7-1.767-4.7-4.892S747.26,235.58,750.045,235.58Zm0,8.8c2.105,0,3.472-1.42,3.472-3.911s-1.367-3.92-3.472-3.92-3.479,1.426-3.479,3.917S747.94,244.384,750.045,244.384Z" transform="translate(-611.933 -193.659)"></path><path id="Path_75" data-name="Path 75" d="M807.631,235.76c2.217,0,3.587,1.008,3.714,2.807v.2h-1.132c-.072-1.483-1.15-2.079-2.563-2.079s-2.362.6-2.362,1.614.793,1.419,2.053,1.634l1.067.179c1.838.307,2.982.961,2.982,2.649s-1.307,2.728-3.565,2.728-3.8-1.04-3.956-2.869v-.2h1.125c.163,1.542,1.347,2.152,2.812,2.152s2.414-.6,2.414-1.72-.882-1.523-2.152-1.732L807,240.943c-1.831-.3-2.891-1.04-2.891-2.6S805.414,235.76,807.631,235.76Z" transform="translate(-659.958 -193.807)"></path><path id="Path_76" data-name="Path 76" d="M825.579,53.69V78.749H821.4V53.69Z" transform="translate(-674.344 -44.389)"></path><rect id="Rectangle_235" data-name="Rectangle 235" width="5.726" height="5.287" transform="translate(146.274)"></rect><path id="Path_77" data-name="Path 77" d="M531.12,49.16c7.306,0,11.819,5.079,11.819,12.484v1.863H522.953c.1,5.149,3.372,8.978,8.275,8.978,4.708,0,7.079-3.19,7.52-5.692h3.981v.735c-.687,3.138-3.96,8.268-11.512,8.268-7.306,0-12.457-5.079-12.457-13.318S523.911,49.16,531.12,49.16Zm7.627,11.055c-.147-4.315-2.773-7.744-7.627-7.744-4.758,0-7.776,3.429-8.167,7.744Z" transform="translate(-425.98 -40.672)"></path><path id="Path_78" data-name="Path 78" d="M682.62,49.16c6.424,0,10.2,3.069,10.838,7.579v.737h-3.972c-.244-3.336-2.941-5.005-6.865-5.005-3.874,0-6.415,1.614-6.415,4.024s2.2,3.228,4.894,3.727l4.071.735c5,.882,8.485,2.6,8.485,7.062,0,4.414-3.729,7.776-10.594,7.776s-10.985-3.363-11.722-8.217v-.735h3.983c.441,3.824,3.52,5.642,7.69,5.642,4.216,0,6.472-1.768,6.472-4.22,0-2.355-2.01-3.189-5.3-3.777l-4.071-.735c-4.663-.834-7.891-2.748-7.891-7.062C672.224,52.229,676.2,49.16,682.62,49.16Z" transform="translate(-551.196 -40.672)"></path><path id="Path_79" data-name="Path 79" d="M439.06,8.93h4.193v8.027h7.38V20.6h-7.38V37.85l.325.393h7.285v3.78h-6.2c-3.375,0-5.6-2.059-5.6-6.13Z" transform="translate(-360.573 -7.657)"></path><path id="Path_80" data-name="Path 80" d="M193.744,57.279c.832-4.663,4.953-8.119,11.132-8.119s10.447,3.459,10.447,9.541V75.032h-4.193V71.3h-.271c-1.076,1.765-3.678,4.484-8.876,4.484-5.346,0-9.123-2.97-9.123-7.434,0-4.663,3.777-6.865,8.877-7.353l9.514-.791V58.6c0-4.069-2.55-6.205-6.474-6.205-3.972,0-6.61,2.136-7.052,5.617h-3.981Zm8.967,15.206c4.561,0,8.538-2.633,8.538-8.273v-.687l-8.926.621c-3.228.294-5.482,1.128-5.482,4.021,0,3.253,2.487,4.319,5.872,4.319Z" transform="translate(-158.527 -40.672)"></path><path id="Path_81" data-name="Path 81" d="M348.673,53.69v3.642h.339c.884-1.865,2.4-3.633,6.132-3.633h2.55v3.633h-2.511c-4.708,0-6.523,2.69-6.523,7.8V78.76h-4.18V53.69Z" transform="translate(-282.955 -44.389)"></path><path id="Path_82" data-name="Path 82" d="M17.641,1.83c9.584,0,13.843,6.067,14.433,10.811v.717H28.092c-.4-3.422-3.18-8.034-10.45-8.034-7.2,0-12.24,5.249-12.24,14.076s4.962,14.076,12.163,14.076S27.738,28.7,28.282,25.254h3.793v.717c-.708,4.6-4.756,11-14.433,11C7.1,36.972,1.42,29.181,1.42,19.409,1.42,8.718,8.011,1.83,17.641,1.83Z" transform="translate(-1.42 -1.83)"></path></svg>