<svg xmlns="http://www.w3.org/2000/svg" viewBox="0 0 416.76 142.75"><defs><style>.cls-1{fill:#fff;}</style></defs><title>Ativo 1</title><g id="Camada_2" data-name="Camada 2"><g id="Isolation_Mode" data-name="Isolation Mode"><path class="cls-1" d="M48.67,96.49H19.2a2,2,0,0,1-1.88-1.3L.13,48.9a2,2,0,0,1,.23-1.83A2,2,0,0,1,2,46.21H61.38a2,2,0,0,1,0,4H4.88L20.59,92.49H48.67a2,2,0,0,1,0,4"/><path class="cls-1" d="M90.84,50.21A2,2,0,0,1,89,48.9l-16-43.12L33.38,49.44a2,2,0,1,1-3-2.69L72.17.66a2,2,0,0,1,3.36.64L92.72,47.51a2,2,0,0,1-1.18,2.57,1.93,1.93,0,0,1-.7.13"/><path class="cls-1" d="M65.85,142.75l-.38,0A2,2,0,0,1,64,141.45L46.79,95.19a2,2,0,0,1,3.75-1.4l16,43.19,39.94-43.84a2,2,0,1,1,3,2.7L67.33,142.1a2,2,0,0,1-1.48.65"/><path class="cls-1" d="M137.94,96.49H78.56a2,2,0,0,1-1.87-1.3L59.5,48.9a2,2,0,0,1,1.17-2.57,2,2,0,0,1,2.58,1.18l16.7,45h55.11l-15.7-42.28H90.77a2,2,0,0,1,0-4h30a2,2,0,0,1,1.87,1.3L139.81,93.8a2,2,0,0,1-1.87,2.69"/><path class="cls-1" d="M48.65,96.49a2,2,0,0,1-1.48-3.35L89.34,46.86a2,2,0,0,1,3,2.69L50.13,95.84a2,2,0,0,1-1.48.65"/><path class="cls-1" d="M150.17,92q-4.68-5.3-5-14.23-.07-2-.08-6.34t.08-6.48q.36-8.94,5-14.23t14-5.29a21.94,21.94,0,0,1,10.67,2.34,15.85,15.85,0,0,1,6.3,5.91A16.44,16.44,0,0,1,183.45,61v.14a1.18,1.18,0,0,1-.43.94,1.65,1.65,0,0,1-1.09.36h-1.44c-.86,0-1.39-.51-1.58-1.52q-1.36-6.12-5-8.64t-9.73-2.52q-6.77,0-10.51,3.82t-4,11.74c0,1.29-.07,3.29-.07,6s0,4.73.07,6.12q.3,7.92,4,11.74T164.21,93q6.14,0,9.73-2.52t5-8.65c.19-1,.72-1.51,1.58-1.51h1.44a1.64,1.64,0,0,1,1.12.4,1.14,1.14,0,0,1,.4,1,16.44,16.44,0,0,1-2.27,7.31,15.85,15.85,0,0,1-6.3,5.91,21.94,21.94,0,0,1-10.67,2.34q-9.36,0-14-5.29"/><path class="cls-1" d="M189,96.16a1.41,1.41,0,0,1-.43-1l.15-.79,18.22-46.75A2.09,2.09,0,0,1,209,46.17h2.45a2.09,2.09,0,0,1,2.09,1.44l18.22,46.75.14.79a1.47,1.47,0,0,1-1.44,1.44H229a1.48,1.48,0,0,1-1-.36,2,2,0,0,1-.54-.72L223,84h-25.5L193,95.51a2.12,2.12,0,0,1-.54.72,1.52,1.52,0,0,1-1.05.36H190a1.39,1.39,0,0,1-1-.43m10.23-16.5h22l-11-28.38Z"/><path class="cls-1" d="M240.86,96.16a1.55,1.55,0,0,1-.43-1.15V47.82a1.67,1.67,0,0,1,.43-1.18,1.47,1.47,0,0,1,1.15-.47h16.78q7.79,0,12.18,3.67t4.39,10.88a14.23,14.23,0,0,1-2.81,9.18,14,14,0,0,1-8.07,4.72l11.6,19.74a1.72,1.72,0,0,1,.22.79,1.38,1.38,0,0,1-.44,1,1.35,1.35,0,0,1-1,.43H274a2.37,2.37,0,0,1-1.62-.47,5.58,5.58,0,0,1-1.11-1.47L259.8,75.27H245V95a1.47,1.47,0,0,1-.47,1.15,1.65,1.65,0,0,1-1.18.43H242a1.55,1.55,0,0,1-1.15-.43M258.43,71q6.27,0,9.33-2.56t3.06-7.67q0-5.11-3.06-7.67t-9.33-2.56H245V71Z"/><path class="cls-1" d="M297.33,96.16A1.55,1.55,0,0,1,296.9,95V50.49H282.64a1.57,1.57,0,0,1-1.16-.43,1.59,1.59,0,0,1-.43-1.15V47.83a1.72,1.72,0,0,1,.43-1.19,1.49,1.49,0,0,1,1.16-.47h33a1.64,1.64,0,0,1,1.22.43,1.66,1.66,0,0,1,.43,1.23v1.08a1.49,1.49,0,0,1-.46,1.15,1.69,1.69,0,0,1-1.19.43H301.44V95a1.5,1.5,0,0,1-.47,1.15,1.67,1.67,0,0,1-1.19.43h-1.3a1.55,1.55,0,0,1-1.15-.43"/><path class="cls-1" d="M326.43,96.16A1.55,1.55,0,0,1,326,95V47.83a1.67,1.67,0,0,1,.43-1.19,1.47,1.47,0,0,1,1.15-.47h28.1a1.64,1.64,0,0,1,1.22.43,1.66,1.66,0,0,1,.43,1.23v1.08a1.49,1.49,0,0,1-.46,1.15,1.69,1.69,0,0,1-1.19.43H330.54V68.86h23.55a1.5,1.5,0,0,1,1.66,1.66V71.6a1.5,1.5,0,0,1-.47,1.15,1.67,1.67,0,0,1-1.19.43H330.54V92.27h25.71a1.5,1.5,0,0,1,1.66,1.66V95a1.5,1.5,0,0,1-.47,1.15,1.67,1.67,0,0,1-1.19.43H327.58a1.55,1.55,0,0,1-1.15-.43"/><path class="cls-1" d="M374,95.47a15.51,15.51,0,0,1-6.34-4.79,11.28,11.28,0,0,1-2.34-6.33,1.35,1.35,0,0,1,.43-1,1.47,1.47,0,0,1,1.08-.44h1.44a1.53,1.53,0,0,1,1.59,1.45,9.23,9.23,0,0,0,4,6.05Q377.29,93,383.77,93q6.84,0,10.19-2.49a8.13,8.13,0,0,0,3.35-7,6.41,6.41,0,0,0-1.62-4.5A13.57,13.57,0,0,0,391,76q-3.09-1.32-9.36-3.35a50.76,50.76,0,0,1-8.68-3.53,11.92,11.92,0,0,1-4.65-4.25,12.36,12.36,0,0,1-1.51-6.41,11.61,11.61,0,0,1,2-6.62,13.25,13.25,0,0,1,5.73-4.65,21.53,21.53,0,0,1,8.93-1.69,20.19,20.19,0,0,1,9.15,1.91,14.5,14.5,0,0,1,5.76,4.82,11.57,11.57,0,0,1,2.09,5.87,1.42,1.42,0,0,1-1.51,1.44h-1.44a1.8,1.8,0,0,1-1-.32,1.39,1.39,0,0,1-.58-1.12A8.24,8.24,0,0,0,392,52.11a14.91,14.91,0,0,0-8.61-2.34q-5.55,0-8.82,2.16a7.23,7.23,0,0,0-3.28,6.48,7.16,7.16,0,0,0,1.48,4.65,11.79,11.79,0,0,0,4.43,3.17,87.73,87.73,0,0,0,8.71,3.2A58.93,58.93,0,0,1,395.15,73a13.52,13.52,0,0,1,5,4.17,10.93,10.93,0,0,1,1.69,6.34A12,12,0,0,1,397,93.67q-4.83,3.64-13.26,3.64A23.84,23.84,0,0,1,374,95.47"/><path class="cls-1" d="M412.65,96.16a1.59,1.59,0,0,1-.43-1.15V47.75a1.59,1.59,0,0,1,.43-1.15,1.57,1.57,0,0,1,1.16-.43h1.37a1.48,1.48,0,0,1,1.58,1.58V95a1.48,1.48,0,0,1-1.58,1.58h-1.37a1.57,1.57,0,0,1-1.16-.43"/></g></g></svg>