<?xml version="1.0" encoding="utf-8"?>
<!-- Generator: Adobe Illustrator 15.0.0, SVG Export Plug-In . SVG Version: 6.00 Build 0)  -->
<!DOCTYPE svg PUBLIC "-//W3C//DTD SVG 1.1//EN" "http://www.w3.org/Graphics/SVG/1.1/DTD/svg11.dtd">
<svg version="1.1" id="Layer_1" xmlns="http://www.w3.org/2000/svg" xmlns:xlink="http://www.w3.org/1999/xlink" x="0px" y="0px"
	 width="248.5px" height="50px" viewBox="0 0 248.5 50" enable-background="new 0 0 248.5 50" xml:space="preserve">
<g>
	<path fill="#FFFFFF" d="M34.915,33.062h-1.3c-0.78,0-1.258,0.455-1.431,1.365c-0.823,3.685-2.318,6.284-4.486,7.802
		c-2.167,1.519-5.094,2.277-8.777,2.277c-4.075,0-7.239-1.148-9.493-3.446c-2.255-2.298-3.468-5.83-3.641-10.6
		c-0.043-1.257-0.064-3.099-0.064-5.526s0.021-4.228,0.064-5.397c0.173-4.767,1.386-8.299,3.641-10.598
		c2.253-2.297,5.418-3.445,9.493-3.445c3.684,0,6.61,0.759,8.777,2.275c2.168,1.519,3.663,4.118,4.486,7.802
		c0.173,0.91,0.651,1.366,1.431,1.366h1.3c0.391,0,0.716-0.107,0.976-0.326c0.26-0.216,0.391-0.497,0.391-0.846v-0.129
		c-0.131-2.253-0.813-4.453-2.049-6.599c-1.236-2.146-3.133-3.924-5.689-5.333c-2.558-1.407-5.766-2.112-9.623-2.112
		c-5.635,0-9.861,1.593-12.678,4.778C3.423,9.558,1.907,13.839,1.69,19.213c-0.044,1.214-0.065,3.164-0.065,5.852
		c0,2.645,0.021,4.553,0.065,5.722c0.217,5.376,1.733,9.657,4.552,12.841c2.817,3.186,7.043,4.78,12.678,4.78
		c3.857,0,7.065-0.704,9.623-2.114c2.556-1.407,4.453-3.186,5.689-5.331s1.918-4.345,2.049-6.6c0.042-0.39-0.077-0.704-0.358-0.943
		C35.641,33.182,35.305,33.062,34.915,33.062z"/>
	<path fill="#FFFFFF" d="M63.457,3.543c-0.348-0.867-0.975-1.3-1.885-1.3h-2.211c-0.91,0-1.54,0.433-1.885,1.3L41.027,45.741
		l-0.13,0.715c0,0.348,0.13,0.649,0.389,0.909c0.261,0.261,0.564,0.393,0.911,0.393h1.3c0.391,0,0.704-0.107,0.943-0.326
		c0.238-0.217,0.4-0.434,0.487-0.649l4.031-10.403h23.019l4.029,10.403c0.088,0.216,0.25,0.433,0.488,0.649
		c0.238,0.219,0.553,0.326,0.941,0.326h1.303c0.346,0,0.648-0.132,0.908-0.393c0.26-0.26,0.391-0.562,0.391-0.909l-0.131-0.715
		L63.457,3.543z M50.519,32.478l9.948-25.618l9.949,25.618H50.519z"/>
	<path fill="#FFFFFF" d="M109.426,27.926c3.164-0.737,5.592-2.156,7.283-4.259c1.689-2.104,2.535-4.866,2.535-8.291
		c0-4.333-1.322-7.607-3.965-9.817c-2.646-2.211-6.309-3.315-10.99-3.315H89.141c-0.434,0-0.781,0.141-1.041,0.422
		c-0.26,0.282-0.389,0.641-0.389,1.073v42.587c0,0.435,0.129,0.78,0.389,1.04c0.26,0.261,0.607,0.393,1.041,0.393h1.17
		c0.434,0,0.791-0.132,1.072-0.393c0.281-0.26,0.424-0.605,0.424-1.04V28.512h13.393l10.34,17.489
		c0.346,0.608,0.682,1.051,1.006,1.333c0.326,0.281,0.814,0.424,1.465,0.424h0.779c0.346,0,0.65-0.132,0.91-0.393
		c0.26-0.26,0.391-0.562,0.391-0.909c0-0.217-0.066-0.455-0.197-0.715L109.426,27.926z M103.965,24.609H91.807V6.144h12.158
		c3.771,0,6.576,0.771,8.42,2.309c1.842,1.539,2.764,3.847,2.764,6.924c0,3.079-0.922,5.388-2.764,6.925
		C110.541,23.84,107.736,24.609,103.965,24.609z"/>
	<path fill="#FFFFFF" d="M155.59,2.243h-29.779c-0.434,0-0.779,0.141-1.039,0.422c-0.262,0.282-0.391,0.641-0.391,1.073v0.976
		c0,0.434,0.129,0.779,0.391,1.039c0.26,0.261,0.605,0.391,1.039,0.391h12.873v40.182c0,0.435,0.131,0.78,0.391,1.04
		c0.26,0.261,0.607,0.393,1.041,0.393h1.17c0.434,0,0.791-0.132,1.072-0.393c0.281-0.26,0.422-0.605,0.422-1.04V6.144h12.811
		c0.432,0,0.789-0.13,1.072-0.391c0.281-0.26,0.422-0.605,0.422-1.039V3.738c0-0.476-0.129-0.845-0.391-1.105
		C156.434,2.373,156.066,2.243,155.59,2.243z"/>
	<path fill="#FFFFFF" d="M192.26,43.854h-23.213V26.625h21.262c0.434,0,0.791-0.13,1.074-0.39c0.281-0.261,0.422-0.607,0.422-1.041
		v-0.976c0-0.477-0.129-0.846-0.389-1.105c-0.262-0.26-0.631-0.39-1.107-0.39h-21.262V6.144h22.691c0.434,0,0.791-0.13,1.074-0.391
		c0.281-0.26,0.422-0.605,0.422-1.039V3.738c0-0.476-0.129-0.845-0.391-1.105c-0.26-0.26-0.627-0.39-1.105-0.39h-25.355
		c-0.436,0-0.781,0.141-1.041,0.422c-0.26,0.282-0.389,0.641-0.389,1.073v42.587c0,0.435,0.129,0.78,0.389,1.04
		c0.26,0.261,0.605,0.393,1.041,0.393h25.877c0.432,0,0.791-0.132,1.072-0.393c0.281-0.26,0.424-0.605,0.424-1.04v-0.974
		c0-0.479-0.131-0.846-0.391-1.106C193.105,43.985,192.736,43.854,192.26,43.854z"/>
	<path fill="#FFFFFF" d="M227.371,26.496c-1.996-1.041-4.771-2.125-8.324-3.252c-3.467-1.128-6.09-2.091-7.867-2.895
		c-1.777-0.801-3.111-1.755-3.998-2.86c-0.889-1.105-1.332-2.503-1.332-4.193c0-2.601,0.984-4.552,2.957-5.852
		c1.973-1.301,4.627-1.95,7.965-1.95c3.121,0,5.711,0.704,7.77,2.112c2.059,1.409,3.219,3.197,3.479,5.364
		c0.043,0.477,0.217,0.812,0.52,1.008s0.607,0.293,0.912,0.293h1.299c0.434,0,0.77-0.131,1.008-0.391
		c0.238-0.261,0.357-0.563,0.357-0.91c-0.086-1.777-0.715-3.544-1.885-5.299c-1.17-1.756-2.904-3.207-5.201-4.356
		c-2.299-1.147-5.051-1.723-8.258-1.723c-3.121,0-5.809,0.51-8.062,1.528c-2.254,1.018-3.977,2.416-5.168,4.193
		c-1.193,1.777-1.789,3.771-1.789,5.981c0,2.341,0.455,4.27,1.365,5.787c0.91,1.517,2.309,2.795,4.193,3.836
		c1.885,1.04,4.498,2.104,7.836,3.186c3.771,1.216,6.586,2.223,8.453,3.024c1.863,0.803,3.283,1.733,4.258,2.795
		c0.977,1.063,1.463,2.418,1.463,4.064c0,2.688-1.008,4.778-3.023,6.274s-5.082,2.244-9.199,2.244c-3.902,0-6.893-0.781-8.975-2.343
		c-2.08-1.562-3.271-3.381-3.574-5.461c-0.174-0.867-0.65-1.301-1.432-1.301h-1.299c-0.391,0-0.717,0.131-0.977,0.39
		c-0.26,0.261-0.389,0.564-0.389,0.911c0.086,2.038,0.789,3.945,2.111,5.722c1.322,1.778,3.23,3.219,5.723,4.324
		s5.43,1.658,8.811,1.658c5.07,0,9.059-1.095,11.963-3.283c2.902-2.19,4.355-5.234,4.355-9.136c0-2.342-0.51-4.248-1.527-5.723
		C230.869,28.793,229.363,27.535,227.371,26.496z"/>
	<path fill="#FFFFFF" d="M246.484,2.633c-0.26-0.26-0.607-0.39-1.039-0.39h-1.236c-0.434,0-0.781,0.13-1.041,0.39
		c-0.26,0.261-0.389,0.607-0.389,1.04v42.652c0,0.435,0.129,0.78,0.389,1.04c0.26,0.261,0.607,0.393,1.041,0.393h1.236
		c0.432,0,0.779-0.132,1.039-0.393c0.26-0.26,0.391-0.605,0.391-1.04V3.673C246.875,3.24,246.744,2.894,246.484,2.633z"/>
</g>
</svg>
