<svg width="127" height="37" viewBox="0 0 127 37" fill="none" xmlns="http://www.w3.org/2000/svg">
<mask id="mask0_4_2" style="mask-type:luminance" maskUnits="userSpaceOnUse" x="0" y="0" width="127" height="32">
<path d="M127 0H0V32H127V0Z" fill="white"/>
</mask>
<g mask="url(#mask0_4_2)">
<mask id="mask1_4_2" style="mask-type:luminance" maskUnits="userSpaceOnUse" x="0" y="0" width="126" height="37">
<path d="M126 0H0V37H126V0Z" fill="white"/>
</mask>
<g mask="url(#mask1_4_2)">
<path fill-rule="evenodd" clip-rule="evenodd" d="M7.99837 9.18897L17.006 0L21.0512 9.87356L16.6469 14.3662L14.822 9.18897H7.99837ZM0 10.9693L3.54667 21.0317H10.1107L15.2656 15.7744L13.5718 10.9693H0ZM17.3036 16.2302L22.4632 10.9693H29.0272L32.5739 21.0317H18.9965L17.3036 16.2302ZM15.5679 32L11.5227 22.1264L15.9233 17.6385L17.7464 22.811H24.5774L15.5679 32ZM78.1606 10.946V8.23277H75.1879V23.7682H78.2257V15.9847C78.2257 12.5608 79.9372 10.9786 82.4896 10.9786H83.7378V8.2337H82.7268C81.1436 8.2337 79.2908 8.55546 78.1606 10.946ZM93.2467 15.967C93.2467 11.0995 96.7655 7.77793 100.672 7.77793C105.451 7.77793 108.131 11.066 108.131 15.9028C108.131 16.2897 108.099 16.6767 108.066 16.8702H96.3786C96.4437 19.6429 98.4454 21.5777 101.06 21.5777C103.09 21.5777 104.3 20.6773 104.998 19.4169H108.013C107.123 22.1274 104.648 24.2537 101.06 24.2537C96.8957 24.2537 93.2467 21.2233 93.2467 15.967ZM100.704 10.454C98.1533 10.454 96.6037 12.4212 96.4744 14.4201H104.966C104.902 12.1952 103.449 10.454 100.704 10.454ZM125.535 8.26626H122.643V23.7672H125.535V8.26626ZM121.959 4.62099C121.959 3.42482 122.906 2.48072 124.073 2.48072C125.273 2.48072 126.22 3.45644 126.22 4.62099C126.22 5.78554 125.24 6.73058 124.073 6.73058C122.906 6.73058 121.959 5.81717 121.959 4.62099ZM88.0742 3.32343H85.0372V20.8028C85.0372 22.4399 86.3646 23.7672 88.0016 23.7672H92.511V21.0224H88.0732V10.9776H92.511V8.23277H88.0732V3.32436L88.0742 3.32343ZM46.661 15.9995C46.661 19.5192 48.8925 21.4493 51.3992 21.4493L51.3983 21.4484C53.6716 21.4484 54.7348 20.254 55.2175 19.4169H58.3921C57.6517 21.6418 55.4277 24.2537 51.3992 24.2537C46.8871 24.2537 43.5674 20.8354 43.5674 15.9995C43.5674 11.1637 46.9522 7.77793 51.3676 7.77793C55.4928 7.77793 57.6192 10.3572 58.2647 12.7115H55.0789C54.4734 11.5757 53.3451 10.5833 51.3676 10.5833C48.9176 10.5833 46.661 12.4798 46.661 15.9995ZM116.915 14.8396L114.406 14.2918C113.215 14.0341 112.635 13.357 112.635 12.4212C112.635 11.3571 113.571 10.3582 115.117 10.3582C117.272 10.3582 118.016 11.706 118.172 12.6119H120.989C120.603 9.68474 118.581 7.77886 115.117 7.77886C112.093 7.77886 109.707 10.0363 109.707 12.6798C109.707 14.8731 111.156 16.5167 113.569 17.0329L116.208 17.6133C117.496 17.9036 118.204 18.6449 118.204 19.6122C118.204 20.7089 117.27 21.6753 115.564 21.6753C113.678 21.6753 112.51 20.7154 112.1 19.4178H109.092C109.666 22.7106 111.977 24.2546 115.532 24.2546C119.362 24.2546 121.196 21.6428 121.196 19.4504C121.196 17.258 119.717 15.4517 116.915 14.8396ZM59.9817 12.7115C60.2515 10.1721 62.641 7.77886 66.317 7.77886C70.9575 7.77886 72.762 10.4233 72.762 13.4537V23.771H69.8302V21.6753C69.1521 22.772 67.6062 24.2546 64.8353 24.2546C61.6774 24.2546 59.6469 22.0623 59.6469 19.6113C59.6469 16.8385 61.6774 15.2908 64.3516 14.9047L68.5391 14.2918C69.4739 14.1625 69.7316 13.6788 69.7316 13.1309C69.7316 11.6157 68.7335 10.3582 66.3812 10.3582C64.572 10.3582 63.44 11.3144 63.0233 12.7115H59.9817ZM65.2538 21.7079C67.7346 21.7079 69.7325 20.5145 69.7325 17.1297L69.7316 16.42L64.9962 17.1297C63.7079 17.3231 62.7396 18.0645 62.7396 19.4504C62.7396 20.6112 63.7079 21.7079 65.2538 21.7079Z" fill="white"/>
</g>
</g>
<path d="M123.175 35.1201C122.635 35.1201 122.155 34.9968 121.735 34.7501C121.322 34.4968 120.992 34.1568 120.745 33.7301C120.505 33.3034 120.385 32.8201 120.385 32.2801C120.385 31.7468 120.505 31.2668 120.745 30.8401C120.985 30.4134 121.315 30.0801 121.735 29.8401C122.155 29.5934 122.635 29.4701 123.175 29.4701C123.542 29.4701 123.885 29.5368 124.205 29.6701C124.525 29.7968 124.802 29.9734 125.035 30.2001C125.275 30.4268 125.452 30.6901 125.565 30.9901L124.575 31.4501C124.462 31.1701 124.279 30.9468 124.025 30.7801C123.779 30.6068 123.495 30.5201 123.175 30.5201C122.869 30.5201 122.592 30.5968 122.345 30.7501C122.105 30.8968 121.915 31.1068 121.775 31.3801C121.635 31.6468 121.565 31.9501 121.565 32.2901C121.565 32.6301 121.635 32.9368 121.775 33.2101C121.915 33.4768 122.105 33.6868 122.345 33.8401C122.592 33.9934 122.869 34.0701 123.175 34.0701C123.502 34.0701 123.785 33.9868 124.025 33.8201C124.272 33.6468 124.455 33.4168 124.575 33.1301L125.565 33.6001C125.459 33.8868 125.285 34.1468 125.045 34.3801C124.812 34.6068 124.535 34.7868 124.215 34.9201C123.895 35.0534 123.549 35.1201 123.175 35.1201Z" fill="white"/>
<path d="M116.682 35.1201C116.162 35.1201 115.685 34.9968 115.252 34.7501C114.825 34.5034 114.485 34.1668 114.232 33.7401C113.979 33.3134 113.852 32.8301 113.852 32.2901C113.852 31.7434 113.979 31.2601 114.232 30.8401C114.485 30.4134 114.825 30.0801 115.252 29.8401C115.679 29.5934 116.155 29.4701 116.682 29.4701C117.215 29.4701 117.692 29.5934 118.112 29.8401C118.539 30.0801 118.875 30.4134 119.122 30.8401C119.375 31.2601 119.502 31.7434 119.502 32.2901C119.502 32.8368 119.375 33.3234 119.122 33.7501C118.869 34.1768 118.529 34.5134 118.102 34.7601C117.675 35.0001 117.202 35.1201 116.682 35.1201ZM116.682 34.0701C117.002 34.0701 117.285 33.9934 117.532 33.8401C117.779 33.6868 117.972 33.4768 118.112 33.2101C118.259 32.9368 118.332 32.6301 118.332 32.2901C118.332 31.9501 118.259 31.6468 118.112 31.3801C117.972 31.1134 117.779 30.9034 117.532 30.7501C117.285 30.5968 117.002 30.5201 116.682 30.5201C116.369 30.5201 116.085 30.5968 115.832 30.7501C115.585 30.9034 115.389 31.1134 115.242 31.3801C115.102 31.6468 115.032 31.9501 115.032 32.2901C115.032 32.6301 115.102 32.9368 115.242 33.2101C115.389 33.4768 115.585 33.6868 115.832 33.8401C116.085 33.9934 116.369 34.0701 116.682 34.0701Z" fill="white"/>
<path d="M106.77 35V27.55H109.21C109.983 27.55 110.653 27.7067 111.22 28.02C111.793 28.3267 112.237 28.76 112.55 29.32C112.863 29.88 113.02 30.53 113.02 31.27C113.02 32.0034 112.863 32.6534 112.55 33.22C112.237 33.78 111.793 34.2167 111.22 34.53C110.653 34.8434 109.983 35 109.21 35H106.77ZM107.95 33.95H109.23C109.757 33.95 110.213 33.84 110.6 33.62C110.993 33.4 111.297 33.09 111.51 32.69C111.723 32.29 111.83 31.8167 111.83 31.27C111.83 30.7234 111.72 30.2534 111.5 29.86C111.287 29.46 110.987 29.15 110.6 28.93C110.213 28.71 109.757 28.6 109.23 28.6H107.95V33.95Z" fill="white"/>
</svg>
