<?xml version="1.0" encoding="UTF-8" standalone="no"?> <svg xmlns="http://www.w3.org/2000/svg" viewBox="0 0 32 32"><title>Start Up</title><g id="_21-30" data-name="21-30"><g id="Start_Up" data-name="Start Up"><path d="M28.793,5.6A3.009,3.009,0,0,0,26.4,3.207,13.561,13.561,0,0,0,14.268,7.339a15.6,15.6,0,0,0-2.039,2.588A6.687,6.687,0,0,0,5.842,14.2a1,1,0,0,0,1.3,1.3,4.764,4.764,0,0,1,2.428-.253c-.315.778-.591,1.508-.827,2.134-.128.342-.243.649-.347.914A3,3,0,0,0,9.06,21.5L10.5,22.939a3,3,0,0,0,3.216.67c.266-.1.575-.22.917-.349.625-.235,1.355-.511,2.131-.825a4.758,4.758,0,0,1-.253,2.427,1,1,0,0,0,.931,1.365.99.99,0,0,0,.362-.069,6.681,6.681,0,0,0,4.272-6.387,15.656,15.656,0,0,0,2.588-2.039A13.558,13.558,0,0,0,28.793,5.6Zm-4.579-.591a9.667,9.667,0,0,1,1.807.163,1.017,1.017,0,0,1,.809.809,9.907,9.907,0,0,1,.152,2.234,4.7,4.7,0,0,1-3.2-3.2C23.933,5.01,24.077,5.007,24.214,5.007ZM8.9,13.169a4.756,4.756,0,0,1,2.114-1.115q-.337.659-.636,1.31A6.741,6.741,0,0,0,8.9,13.169ZM18.831,23.1a6.76,6.76,0,0,0-.2-1.479c.436-.2.872-.411,1.312-.637A4.739,4.739,0,0,1,18.831,23.1Zm-4.9-1.716c-.353.133-.67.252-.943.358a1,1,0,0,1-1.073-.221l-1.437-1.436a1,1,0,0,1-.221-1.073c.107-.273.226-.588.358-.939.957-2.549,2.56-6.813,5.071-9.324A12.4,12.4,0,0,1,21.8,5.277a6.755,6.755,0,0,0,1.76,3.162,6.759,6.759,0,0,0,3.162,1.76,12.381,12.381,0,0,1-3.475,6.119C20.737,18.827,16.474,20.431,13.927,21.388Z"/><path d="M8.707,23.293a1,1,0,0,0-1.414,0L4.1,26.482A1,1,0,1,0,5.518,27.9l3.189-3.189A1,1,0,0,0,8.707,23.293Z"/><path d="M4.707,23.843l2.068-2.068a1,1,0,1,0-1.414-1.414L3.293,22.429a1,1,0,1,0,1.414,1.414Z"/><path d="M10.225,25.225,8.157,27.293a1,1,0,1,0,1.414,1.414l2.068-2.068a1,1,0,0,0-1.414-1.414Z"/><path d="M17.075,10.269a3.292,3.292,0,1,0,4.656,0A3.3,3.3,0,0,0,17.075,10.269Zm3.242,3.242a1.292,1.292,0,1,1,0-1.828A1.294,1.294,0,0,1,20.317,13.511Z"/></g></g></svg>